<?xml version="1.0" standalone="no"?>
<!DOCTYPE svg PUBLIC "-//W3C//DTD SVG 20010904//EN"
 "http://www.w3.org/TR/2001/REC-SVG-20010904/DTD/svg10.dtd">
<svg version="1.0" xmlns="http://www.w3.org/2000/svg"
 width="434.000000pt" height="434.000000pt" viewBox="0 0 434.000000 434.000000"
 preserveAspectRatio="xMidYMid meet">
<metadata>
Created by potrace 1.11, written by Peter Selinger 2001-2013
</metadata>
<g transform="translate(0.000000,434.000000) scale(0.100000,-0.100000)"
fill="#000000" stroke="none">
<path d="M370 3196 c2 -171 2 -174 23 -174 12 0 31 -2 42 -4 13 -2 19 2 17 11
-1 7 11 38 28 67 19 35 31 71 32 99 l2 44 116 3 115 3 3 63 3 62 -191 0 -191
0 1 -174z m76 -131 c-9 -14 -22 -23 -27 -19 -6 4 -2 15 12 30 28 30 37 23 15
-11z"/>
<path d="M990 3349 c0 -16 4 -19 20 -14 15 5 18 2 15 -15 -2 -11 -6 -24 -9
-29 -4 -5 3 -7 14 -4 11 3 20 10 21 17 0 6 4 1 9 -11 10 -24 25 -30 35 -13 11
18 25 10 22 -12 -5 -31 12 -90 23 -83 6 4 10 25 10 49 0 29 8 52 25 76 42 57
37 60 -80 60 -99 0 -105 -1 -105 -21z m190 -13 c0 -3 -4 -8 -10 -11 -5 -3 -10
-1 -10 4 0 6 5 11 10 11 6 0 10 -2 10 -4z"/>
<path d="M1597 3363 c-3 -5 1 -14 9 -21 12 -11 14 -9 14 8 0 20 -14 27 -23 13z"/>
<path d="M2081 2990 c-2 -212 -3 -406 -1 -432 2 -45 1 -47 -35 -62 -43 -18
-45 -19 -44 -8 1 4 0 18 -1 32 -2 18 -5 14 -9 -15 -3 -22 -3 -41 1 -43 4 -2
20 4 37 12 38 20 48 20 54 -1 4 -14 5 -12 6 5 1 26 34 42 86 42 19 0 37 5 41
11 7 12 -3 11 -98 -8 l-28 -5 -3 428 -2 429 -4 -385z"/>
<path d="M2768 3345 c44 -56 20 -90 -58 -83 -41 4 -53 1 -67 -15 -18 -19 -17
-20 4 -8 12 6 45 11 73 11 28 0 60 5 71 10 22 12 26 -1 7 -22 -17 -17 -22 -48
-8 -48 5 0 10 -5 10 -11 0 -5 -4 -7 -10 -4 -6 3 -7 -1 -4 -9 3 -9 11 -16 18
-17 6 0 2 -4 -9 -9 -11 -5 -15 -9 -9 -9 12 -1 7 -48 -7 -57 -11 -6 10 -51 27
-58 8 -3 14 -1 14 4 0 6 4 10 10 10 5 0 7 -8 3 -17 -7 -19 -5 -18 17 11 8 11
10 17 3 13 -6 -4 -14 -3 -17 2 -3 5 1 11 9 15 8 3 15 2 15 -3 0 -5 9 -11 20
-14 19 -5 20 0 20 94 0 121 -14 160 -58 154 -24 -3 -30 2 -47 37 -11 23 -27
44 -34 46 -10 3 -7 -5 7 -23z"/>
<path d="M3062 3345 c2 -20 8 -25 33 -26 16 -1 35 0 40 1 6 2 22 2 38 1 15 -1
27 3 27 8 0 16 -61 41 -101 41 -35 0 -39 -2 -37 -25z"/>
<path d="M3457 3348 c4 -18 3 -20 -6 -8 -9 13 -11 13 -11 -2 0 -9 -5 -29 -12
-43 -10 -23 -17 -26 -45 -23 -42 5 -38 -13 5 -26 34 -9 42 -35 19 -55 -18 -14
-5 -115 17 -140 9 -10 16 -25 16 -34 0 -10 6 -26 12 -37 10 -16 10 -26 -1 -52
-8 -18 -15 -55 -15 -83 -1 -48 -3 -50 -43 -73 -42 -23 -43 -25 -44 -75 -2 -80
-10 -101 -49 -113 -59 -20 -100 18 -100 93 0 20 -4 23 -22 18 -75 -22 -134
-55 -97 -55 7 0 9 -10 7 -25 -3 -14 -1 -25 6 -25 6 0 4 -5 -4 -10 -13 -8 -12
-10 3 -10 9 0 17 -5 17 -12 0 -6 3 -9 6 -5 4 3 13 0 20 -8 11 -11 21 -11 51
-2 l38 12 -30 6 c-30 7 -30 7 -3 8 15 0 30 -4 33 -9 3 -6 18 -8 33 -5 25 5 24
4 -8 -15 l-35 -21 30 7 c17 3 35 7 40 8 6 1 15 5 22 9 7 4 29 8 50 9 21 1 43
8 51 17 11 15 12 15 7 0 -4 -12 0 -15 17 -14 13 1 23 6 24 11 0 5 5 27 12 49
16 57 12 747 -5 752 -7 3 -10 -4 -6 -19z"/>
<path d="M3610 3305 l0 -65 74 0 74 0 3 -102 c2 -57 2 -132 1 -168 l-2 -65 20
38 c11 20 20 48 20 61 0 32 28 55 41 35 8 -11 9 -9 5 7 -4 14 -2 21 8 21 9 0
13 -4 10 -9 -8 -13 14 -9 23 5 4 6 8 48 8 92 l0 80 70 1 70 1 6 59 c3 33 4 62
2 67 -2 4 -101 7 -219 7 l-214 0 0 -65z m250 -183 c0 -5 -7 -9 -15 -9 -8 0
-12 4 -9 9 3 4 9 8 15 8 5 0 9 -4 9 -8z"/>
<path d="M1486 3297 c3 -10 9 -15 12 -12 3 3 0 11 -7 18 -10 9 -11 8 -5 -6z"/>
<path d="M1061 3223 c-1 -12 4 -25 9 -28 12 -7 12 2 0 30 -8 19 -9 19 -9 -2z"/>
<path d="M1100 3204 c0 -6 5 -15 12 -22 7 -7 8 -12 2 -12 -6 0 -11 -7 -11 -15
0 -8 7 -15 16 -15 25 0 81 -59 88 -91 3 -16 9 -32 13 -34 11 -7 -6 63 -19 79
-7 8 -8 16 -4 18 4 3 3 4 -2 3 -16 -4 -36 43 -21 50 6 3 -3 4 -21 2 -18 -2
-30 -1 -28 2 2 4 -3 15 -11 26 -8 10 -14 14 -14 9z"/>
<path d="M1510 3177 c8 -8 26 -18 40 -22 32 -9 25 -3 -20 19 -25 12 -31 13
-20 3z"/>
<path d="M1198 3173 c7 -3 16 -2 19 1 4 3 -2 6 -13 5 -11 0 -14 -3 -6 -6z"/>
<path d="M1480 3131 c0 -19 35 -39 47 -27 4 3 -1 6 -10 6 -9 0 -17 6 -17 14 0
8 -4 18 -10 21 -5 3 -10 -3 -10 -14z"/>
<path d="M1041 3128 c-14 -5 -39 -6 -55 -3 -23 5 -27 4 -16 -4 19 -13 70 -14
90 -1 21 13 9 19 -19 8z"/>
<path d="M2490 3110 c0 -6 10 -8 23 -5 32 8 48 -7 50 -49 3 -36 18 -56 44 -56
9 0 9 8 1 31 -8 22 -7 37 1 55 15 33 14 39 -4 24 -8 -7 -16 -29 -16 -49 l-1
-36 -7 35 c-4 20 -11 41 -15 48 -9 15 -76 16 -76 2z"/>
<path d="M1558 3093 c7 -3 16 -2 19 1 4 3 -2 6 -13 5 -11 0 -14 -3 -6 -6z"/>
<path d="M4030 3010 c0 -33 1 -63 3 -66 1 -4 30 -8 65 -10 l62 -3 0 70 0 69
-65 0 -65 0 0 -60z"/>
<path d="M2862 3017 c-8 -10 -6 -13 8 -14 13 -1 17 3 13 13 -6 17 -8 17 -21 1z"/>
<path d="M2485 3000 c3 -5 13 -10 21 -10 19 0 75 -56 93 -92 8 -16 16 -26 19
-24 10 11 -46 92 -77 113 -35 24 -67 31 -56 13z"/>
<path d="M406 2969 c-8 -19 -15 -28 -15 -21 -1 6 -4 12 -8 12 -5 0 -9 -113
-11 -250 l-2 -250 70 0 c40 0 70 4 70 10 0 10 -13 14 -37 11 -6 -1 -14 3 -18
9 -3 5 0 7 8 4 16 -6 33 26 18 35 -5 4 -9 13 -8 21 1 8 -2 16 -8 17 -15 3 -24
37 -13 50 13 16 2 33 -22 33 -12 0 -17 6 -15 18 2 9 4 21 4 26 1 5 7 3 15 -3
10 -9 16 -8 26 4 7 8 17 12 23 8 6 -4 7 -1 3 6 -5 7 -11 10 -14 7 -3 -3 -11
-1 -19 5 -10 9 -11 15 -2 26 7 7 9 16 5 20 -10 10 -18 -3 -20 -31 0 -14 -6
-26 -12 -26 -7 0 -11 21 -11 53 0 30 -3 58 -6 64 -10 16 3 23 33 16 15 -3 36
0 47 6 16 9 16 11 -7 12 -14 1 -29 0 -35 -1 -5 -1 3 12 18 28 34 35 21 51 -17
21 l-25 -20 -6 23 c-3 13 -1 37 5 52 15 41 4 45 -14 5z m24 -393 c-4 -4 -16
-4 -26 2 -16 9 -14 10 8 9 15 -1 23 -6 18 -11z m30 -28 c0 -3 3 -13 6 -21 3
-10 -4 -17 -22 -21 -29 -8 -38 -2 -48 29 -5 17 -1 20 29 20 19 0 35 -3 35 -7z"/>
<path d="M926 2928 c-2 -13 -11 -57 -20 -98 -18 -89 -17 -130 3 -122 9 3 12 1
7 -6 -4 -7 -1 -12 8 -12 9 0 16 -9 16 -20 0 -26 -15 -26 -33 1 -19 27 -25 16
-33 -63 -7 -70 1 -87 33 -69 20 10 59 -10 46 -23 -4 -4 0 -4 10 0 9 3 17 10
17 14 0 5 3 15 6 23 3 10 -2 17 -13 20 -14 4 -15 5 -2 6 9 0 19 10 22 20 4 17
16 20 87 23 l83 3 14 -35 c7 -19 18 -43 23 -52 7 -12 7 -18 0 -18 -5 0 -10 -4
-10 -10 0 -5 7 -10 15 -10 13 0 14 -4 5 -20 -9 -17 -8 -20 10 -20 26 0 26 22
0 79 -22 48 -20 62 7 39 10 -8 35 -18 56 -21 31 -5 37 -3 37 12 0 14 -18 23
-74 39 -40 12 -79 29 -86 37 -7 8 -18 15 -25 15 -7 0 -34 20 -59 45 -25 25
-46 43 -46 39 0 -5 -7 1 -15 12 -8 10 -15 37 -15 59 l-1 40 -16 -27 c-29 -46
-41 -42 -48 17 -4 30 -4 66 -1 80 4 14 4 25 1 25 -2 0 -7 -10 -9 -22z"/>
<path d="M3356 2934 c-9 -23 -7 -36 3 -30 12 8 21 46 11 46 -4 0 -11 -7 -14
-16z"/>
<path d="M2111 2924 c0 -11 3 -14 6 -6 3 7 2 16 -1 19 -3 4 -6 -2 -5 -13z"/>
<path d="M3830 2930 c0 -5 5 -10 11 -10 5 0 7 5 4 10 -3 6 -8 10 -11 10 -2 0
-4 -4 -4 -10z"/>
<path d="M682 2910 c0 -14 2 -19 5 -12 2 6 2 18 0 25 -3 6 -5 1 -5 -13z"/>
<path d="M2101 2864 c0 -11 3 -14 6 -6 3 7 2 16 -1 19 -3 4 -6 -2 -5 -13z"/>
<path d="M2770 2865 c6 -8 18 -34 25 -57 13 -42 14 -42 14 -11 1 41 -18 83
-37 83 -12 0 -12 -3 -2 -15z"/>
<path d="M1021 2804 c0 -11 3 -14 6 -6 3 7 2 16 -1 19 -3 4 -6 -2 -5 -13z"/>
<path d="M3143 2785 c-59 -28 -72 -42 -18 -19 19 7 44 14 55 14 11 0 20 7 20
15 0 18 6 19 -57 -10z"/>
<path d="M3872 2723 c5 -25 28 -28 28 -4 0 12 -6 21 -16 21 -9 0 -14 -7 -12
-17z"/>
<path d="M3875 2667 c-4 -9 -13 -13 -21 -10 -8 3 -14 -1 -14 -11 0 -9 -15 -20
-40 -27 -22 -7 -40 -16 -40 -21 0 -12 21 -10 73 8 50 17 77 48 58 67 -7 7 -12
6 -16 -6z"/>
<path d="M2570 2599 c-6 -23 -21 -51 -33 -61 -16 -15 -18 -18 -5 -14 12 3 18
-2 21 -17 3 -19 4 -18 12 8 10 37 21 45 66 45 48 0 51 -6 27 -46 -19 -33 -20
-33 -49 -19 -16 9 -29 14 -29 11 0 -8 73 -47 78 -41 3 3 -1 5 -9 5 -8 0 -1 7
15 15 24 13 31 13 38 3 4 -7 6 -18 4 -24 -5 -14 81 -1 96 14 9 9 4 12 -20 12
-37 0 -43 21 -15 52 16 18 17 18 45 -9 15 -14 31 -24 34 -20 7 7 -44 61 -64
68 -7 2 -14 15 -15 27 l-1 23 -18 -23 c-10 -13 -18 -27 -18 -31 0 -5 -12 -6
-27 -3 -59 12 -103 15 -108 6 -14 -22 -23 -8 -14 22 5 17 7 34 4 36 -2 2 -9
-15 -15 -39z m174 -63 c-3 -9 -10 -13 -16 -10 -5 3 -4 12 3 20 15 18 22 13 13
-10z"/>
<path d="M4030 2522 l0 -69 30 5 c29 4 116 72 92 72 -9 0 -10 5 -2 19 19 36
12 41 -55 41 l-65 0 0 -68z"/>
<path d="M1498 2573 c-10 -2 -18 -9 -18 -14 0 -14 26 -11 40 6 13 15 9 16 -22
8z"/>
<path d="M3142 2501 c-11 -6 -9 -9 7 -14 12 -3 22 1 25 9 6 16 -12 18 -32 5z"/>
<path d="M2223 2480 c-34 -14 -28 -21 8 -8 17 6 50 8 75 5 24 -2 41 -1 38 4
-7 12 -92 10 -121 -1z"/>
<path d="M3880 2470 c0 -5 5 -10 11 -10 5 0 7 5 4 10 -3 6 -8 10 -11 10 -2 0
-4 -4 -4 -10z"/>
<path d="M4145 2470 c-3 -5 -1 -10 4 -10 6 0 11 5 11 10 0 6 -2 10 -4 10 -3 0
-8 -4 -11 -10z"/>
<path d="M1380 2343 c0 -7 7 -13 15 -13 10 0 15 -10 15 -31 0 -17 4 -28 10
-24 6 3 10 -1 10 -9 0 -8 -4 -18 -10 -21 -5 -3 -10 -14 -10 -23 1 -35 29 33
30 71 0 24 5 40 15 43 28 11 15 19 -30 20 -32 1 -45 -3 -45 -13z"/>
<path d="M1837 2353 c-4 -3 -7 -11 -7 -17 0 -6 5 -5 12 2 6 6 9 14 7 17 -3 3
-9 2 -12 -2z"/>
<path d="M2081 2270 c-1 -52 -4 -104 -6 -115 -2 -11 -6 -32 -9 -47 -6 -28 10
-40 20 -15 2 7 3 71 1 143 -2 121 -3 123 -6 34z"/>
<path d="M2528 2348 c31 -15 28 -37 -8 -49 -19 -7 -30 -18 -30 -30 0 -25 20
-24 27 1 3 11 14 20 24 20 20 0 24 4 33 43 6 26 5 27 -31 26 -35 0 -36 -1 -15
-11z"/>
<path d="M2740 2346 c0 -11 9 -16 26 -16 31 0 28 23 -4 28 -15 2 -22 -2 -22
-12z"/>
<path d="M2416 2320 c-16 -10 -33 -17 -38 -14 -4 3 -8 0 -8 -6 0 -7 8 -9 23
-4 23 7 67 34 67 40 0 8 -16 2 -44 -16z"/>
<path d="M1794 2295 c-17 -13 -17 -14 -2 -15 9 0 20 5 23 11 11 17 0 20 -21 4z"/>
<path d="M2740 2299 c0 -3 11 -20 25 -39 14 -19 25 -27 25 -19 0 9 -11 26 -25
39 -14 13 -25 21 -25 19z"/>
<path d="M2610 2280 c0 -5 7 -10 16 -10 8 0 12 5 9 10 -3 6 -10 10 -16 10 -5
0 -9 -4 -9 -10z"/>
<path d="M2325 2270 c-3 -5 -1 -10 4 -10 6 0 11 5 11 10 0 6 -2 10 -4 10 -3 0
-8 -4 -11 -10z"/>
<path d="M1185 2258 c-2 -7 -6 -24 -9 -38 -2 -14 -7 -38 -11 -53 -7 -25 -5
-28 11 -25 11 2 18 11 18 21 -2 17 5 20 36 18 10 0 11 1 2 5 -6 3 -10 10 -6
15 3 5 -2 9 -10 9 -12 0 -14 7 -9 30 5 30 -13 44 -22 18z"/>
<path d="M1240 2259 c0 -5 5 -7 10 -4 6 3 10 8 10 11 0 2 -4 4 -10 4 -5 0 -10
-5 -10 -11z"/>
<path d="M1671 2261 c-7 -5 -12 -14 -10 -20 3 -6 9 -7 18 -2 7 5 12 14 10 20
-3 6 -9 7 -18 2z"/>
<path d="M2407 2253 c-4 -3 -6 -18 -6 -32 1 -17 3 -20 6 -8 2 9 9 17 14 17 5
0 9 7 9 15 0 16 -12 20 -23 8z"/>
<path d="M3191 2244 c0 -11 3 -14 6 -6 3 7 2 16 -1 19 -3 4 -6 -2 -5 -13z"/>
<path d="M1580 2220 c0 -5 7 -7 15 -4 8 4 15 8 15 10 0 2 -7 4 -15 4 -8 0 -15
-4 -15 -10z"/>
<path d="M2267 2213 c-13 -12 -7 -41 9 -47 26 -10 28 -7 10 13 -10 11 -15 25
-11 30 7 12 2 15 -8 4z"/>
<path d="M2920 2209 c0 -5 5 -7 10 -4 6 3 10 8 10 11 0 2 -4 4 -10 4 -5 0 -10
-5 -10 -11z"/>
<path d="M1522 2198 c-17 -17 -15 -38 3 -38 8 0 12 6 9 13 -3 8 5 18 18 25 22
10 22 11 3 11 -12 1 -26 -4 -33 -11z"/>
<path d="M1597 2203 c-9 -9 -9 -63 1 -63 4 0 8 16 9 35 2 37 1 39 -10 28z"/>
<path d="M2853 2166 c1 -20 5 -36 9 -36 14 0 13 48 -2 64 -4 4 -8 -8 -7 -28z"/>
<path d="M3110 2190 c0 -5 7 -7 15 -4 8 4 15 8 15 10 0 2 -7 4 -15 4 -8 0 -15
-4 -15 -10z"/>
<path d="M1412 2164 c-1 -15 4 -24 12 -24 22 0 27 29 8 39 -15 8 -18 5 -20
-15z"/>
<path d="M2187 2183 c-11 -10 -7 -46 7 -73 13 -23 14 -22 14 28 1 49 -5 61
-21 45z"/>
<path d="M1242 2158 c3 -7 13 -15 22 -16 12 -3 17 1 14 10 -3 7 -13 15 -22 16
-12 3 -17 -1 -14 -10z"/>
<path d="M2730 2133 c0 -13 5 -23 10 -23 13 0 13 11 0 30 -8 12 -10 11 -10 -7z"/>
<path d="M2140 2130 c0 -5 5 -10 10 -10 6 0 10 5 10 10 0 6 -4 10 -10 10 -5 0
-10 -4 -10 -10z"/>
<path d="M2495 2110 c3 -5 14 -10 23 -10 15 0 15 2 2 10 -20 13 -33 13 -25 0z"/>
<path d="M2778 2096 c-5 -24 6 -55 15 -46 6 6 10 38 8 58 -2 21 -18 13 -23
-12z"/>
<path d="M1217 2093 c-4 -3 3 -18 15 -31 13 -14 17 -22 9 -17 -9 5 -12 3 -9
-5 8 -24 24 -21 26 4 1 17 -5 27 -19 31 -17 6 -19 9 -8 16 8 5 9 9 3 9 -6 0
-14 -3 -17 -7z"/>
<path d="M1512 2068 c4 -43 23 -46 23 -3 0 22 -5 35 -13 35 -9 0 -12 -11 -10
-32z"/>
<path d="M2305 2090 c-3 -6 1 -7 9 -4 18 7 21 14 7 14 -6 0 -13 -4 -16 -10z"/>
<path d="M2730 2090 c0 -5 5 -10 10 -10 6 0 10 5 10 10 0 6 -4 10 -10 10 -5 0
-10 -4 -10 -10z"/>
<path d="M1660 2067 c0 -27 13 -36 26 -16 3 6 -1 18 -10 27 -15 15 -16 14 -16
-11z"/>
<path d="M2030 2075 c0 -8 2 -15 4 -15 2 0 6 7 10 15 3 8 1 15 -4 15 -6 0 -10
-7 -10 -15z"/>
<path d="M2853 2033 c1 -34 5 -64 8 -68 10 -9 8 100 -1 116 -6 9 -8 -9 -7 -48z"/>
<path d="M1175 2070 c3 -5 2 -10 -4 -10 -11 0 -8 -76 3 -88 10 -9 27 20 21 36
-3 8 -5 27 -5 43 0 16 -5 29 -11 29 -5 0 -7 -4 -4 -10z"/>
<path d="M2310 2059 c0 -5 5 -7 10 -4 6 3 10 8 10 11 0 2 -4 4 -10 4 -5 0 -10
-5 -10 -11z"/>
<path d="M2620 2059 c0 -5 5 -7 10 -4 6 3 10 8 10 11 0 2 -4 4 -10 4 -5 0 -10
-5 -10 -11z"/>
<path d="M1610 2040 c0 -13 5 -20 13 -17 6 2 12 10 12 17 0 7 -6 15 -12 18 -8
2 -13 -5 -13 -18z"/>
<path d="M2905 1998 c9 -51 10 -52 30 -44 11 4 14 13 9 33 -15 64 -49 73 -39
11z"/>
<path d="M2135 2020 c-3 -6 1 -7 9 -4 18 7 21 14 7 14 -6 0 -13 -4 -16 -10z"/>
<path d="M2052 1990 c0 -19 2 -27 5 -17 2 9 2 25 0 35 -3 9 -5 1 -5 -18z"/>
<path d="M2071 1994 c0 -11 3 -14 6 -6 3 7 2 16 -1 19 -3 4 -6 -2 -5 -13z"/>
<path d="M2260 1994 c0 -8 5 -12 10 -9 6 3 10 10 10 16 0 5 -4 9 -10 9 -5 0
-10 -7 -10 -16z"/>
<path d="M2497 2003 c-12 -12 -7 -22 8 -17 8 4 15 10 15 15 0 11 -14 12 -23 2z"/>
<path d="M2743 1999 c-13 -5 -23 -12 -23 -17 0 -11 43 -10 51 2 4 5 10 -1 14
-13 9 -30 20 -26 23 8 2 24 -2 28 -20 28 -13 0 -33 -3 -45 -8z"/>
<path d="M1236 1992 c-3 -6 -1 -14 5 -17 15 -10 25 3 12 16 -7 7 -13 7 -17 1z"/>
<path d="M2612 1968 c2 -13 8 -23 13 -23 6 0 11 10 13 23 2 15 -2 22 -13 22
-11 0 -15 -7 -13 -22z"/>
<path d="M2985 1977 c-9 -22 2 -81 15 -85 8 -3 10 0 5 7 -5 9 -1 9 14 -1 17
-10 23 -10 35 2 8 8 16 26 18 40 3 22 -1 25 -26 25 -16 0 -31 6 -33 13 -6 16
-22 16 -28 -1z m70 -37 c3 -5 1 -10 -4 -10 -6 0 -11 5 -11 10 0 6 2 10 4 10 3
0 8 -4 11 -10z"/>
<path d="M3114 1954 c3 -9 6 -17 6 -20 0 -2 8 -1 18 3 16 6 16 5 0 -13 -14
-16 -15 -23 -6 -32 16 -16 23 -15 42 4 18 17 22 64 6 64 -5 0 -10 -5 -10 -11
0 -7 -10 -5 -25 5 -31 20 -39 20 -31 0z"/>
<path d="M1170 1945 c0 -8 2 -15 4 -15 2 0 6 7 10 15 3 8 1 15 -4 15 -6 0 -10
-7 -10 -15z"/>
<path d="M2050 1944 c-16 -10 -18 -13 -6 -9 11 3 23 0 28 -7 5 -9 8 -6 8 10 0
26 2 25 -30 6z"/>
<path d="M2635 1939 c-4 -6 -5 -13 -2 -15 7 -8 57 7 57 17 0 13 -47 11 -55 -2z"/>
<path d="M2717 1943 c-4 -3 -7 -15 -7 -26 0 -16 3 -17 15 -7 8 7 15 19 15 26
0 15 -12 19 -23 7z"/>
<path d="M2797 1933 c-10 -9 -8 -43 2 -43 5 0 11 11 13 25 5 24 -2 32 -15 18z"/>
<path d="M1988 1923 c7 -3 16 -2 19 1 4 3 -2 6 -13 5 -11 0 -14 -3 -6 -6z"/>
<path d="M2927 1915 c-4 -8 -2 -17 3 -20 6 -4 10 3 10 14 0 25 -6 27 -13 6z"/>
<path d="M2850 1910 c0 -5 5 -10 10 -10 6 0 10 5 10 10 0 6 -4 10 -10 10 -5 0
-10 -4 -10 -10z"/>
<path d="M900 1650 c-10 -6 -14 -29 -15 -78 0 -39 3 -66 6 -60 4 6 9 5 14 -3
5 -7 1 -18 -11 -28 -23 -19 -29 -61 -8 -61 8 0 14 -9 14 -19 0 -11 3 -28 7
-38 4 -12 0 -10 -15 7 -16 19 -21 21 -22 9 0 -9 6 -21 13 -27 9 -8 14 -50 16
-143 2 -118 1 -131 -13 -120 -10 8 -29 10 -60 6 l-46 -7 0 91 c0 74 -3 91 -15
91 -15 0 -15 -5 -19 -177 -1 -28 -1 -28 62 -25 51 3 62 1 62 -12 0 -12 -11
-16 -47 -18 -113 -3 -162 -6 -216 -13 -53 -7 -56 -6 -54 14 1 12 12 33 24 49
l23 27 34 -39 c18 -21 36 -35 38 -30 3 5 9 51 13 103 6 77 5 93 -6 89 -10 -3
-15 -27 -17 -76 -2 -40 -6 -72 -9 -72 -4 0 -18 14 -33 32 l-26 31 -23 -31
c-12 -18 -26 -32 -30 -32 -5 0 -11 29 -14 65 -4 36 -11 73 -17 83 -8 13 -9 -2
-4 -58 16 -164 15 -167 -43 -169 -31 -1 -30 30 2 65 31 33 33 81 4 118 -25 31
-71 35 -91 7 -7 -10 -22 -21 -33 -24 -18 -4 -17 -5 3 -6 14 -1 20 -5 17 -12
-12 -19 17 -101 37 -107 11 -2 18 -12 16 -21 -3 -13 -18 -17 -73 -18 l-70 -3
28 21 c26 20 36 57 20 73 -5 4 -8 31 -8 59 l0 52 -55 6 c-30 3 -58 1 -61 -4
-4 -5 -4 -29 -1 -53 4 -36 2 -44 -12 -44 -19 0 -22 26 -3 33 8 4 9 8 1 14 -6
4 -14 15 -17 23 -3 8 -6 -9 -6 -39 -1 -49 1 -53 19 -48 19 5 21 2 18 -45 -2
-40 -7 -52 -21 -54 -11 -1 -23 7 -29 22 -11 23 -16 24 -52 19 -93 -14 -96 -15
-96 -42 l0 -25 98 6 c244 15 352 17 352 6 0 -7 -15 -11 -37 -9 -21 2 -56 0
-78 -3 -22 -4 -106 -12 -187 -19 l-148 -12 0 -69 0 -68 29 0 c36 0 40 6 48 70
3 27 10 50 15 50 6 0 7 -17 3 -39 -9 -53 7 -81 42 -76 16 2 39 4 53 5 23 1 23
2 7 11 -13 8 -17 18 -13 35 7 28 -2 31 -20 7 -7 -10 -16 -15 -20 -11 -9 10 15
38 33 38 8 0 21 -6 29 -14 12 -13 12 -15 -4 -19 -10 -3 -6 -5 11 -6 16 0 26 3
22 8 -3 6 3 15 12 21 15 9 13 10 -11 5 -26 -5 -28 -4 -17 9 15 18 15 18 -54
18 l-50 0 55 8 c30 5 59 6 65 2 5 -3 18 -7 27 -7 23 -2 37 -16 21 -22 -7 -2
-9 -11 -6 -19 3 -9 -1 -14 -12 -14 -13 0 -16 -6 -11 -25 5 -21 2 -27 -21 -35
-16 -6 -35 -14 -43 -18 -8 -5 -26 -5 -40 -1 -38 11 -118 11 -101 0 11 -7 9
-10 -10 -14 -13 -2 16 -5 66 -6 65 -1 86 -4 75 -12 -11 -7 -4 -8 25 -3 22 4
46 7 53 7 6 0 12 5 12 11 0 6 7 0 16 -12 8 -12 19 -20 24 -17 16 10 47 -13 54
-40 10 -39 26 -30 26 15 0 22 4 40 10 40 10 0 14 -14 25 -81 l5 -36 -72 -8
c-40 -5 -65 -10 -55 -12 9 -3 15 -9 12 -14 -8 -12 -45 -12 -45 1 0 5 -15 14
-33 19 l-32 9 30 2 c129 8 140 14 102 54 -20 21 -26 24 -22 10 6 -17 5 -17 -6
1 -6 11 -13 22 -15 24 -2 2 -69 6 -149 8 l-145 5 0 -57 c0 -55 1 -57 23 -50
42 13 148 18 160 6 18 -18 5 -21 -91 -22 -75 -1 -92 -4 -92 -16 0 -9 6 -13 15
-9 8 3 62 8 120 12 76 5 105 4 105 -5 0 -7 -26 -11 -79 -11 -44 0 -83 -4 -86
-10 -4 -6 15 -10 49 -10 44 0 57 -4 65 -19 6 -10 18 -21 27 -25 13 -5 15 -2
10 19 -4 14 -2 25 4 25 5 0 10 -11 10 -25 0 -34 -1 -31 15 -69 21 -49 19 -56
-12 -56 -43 0 -90 22 -105 48 -7 13 -23 28 -36 33 -18 7 -21 14 -16 34 5 21 3
25 -14 25 -26 0 -39 -19 -21 -31 10 -6 4 -9 -18 -9 l-33 0 0 -125 c0 -104 3
-127 15 -132 18 -6 180 21 275 47 36 10 90 21 120 25 30 4 62 9 70 11 8 2 38
8 65 13 28 5 70 15 95 21 25 6 115 12 203 12 106 0 161 3 170 11 6 7 50 13 97
15 47 1 86 7 88 12 3 7 290 16 389 12 18 -1 35 3 39 9 5 9 -26 10 -117 5 -77
-5 -133 -4 -149 3 -18 7 -20 10 -7 10 9 1 17 5 17 11 0 5 3 9 8 9 4 -1 22 -1
40 0 35 1 45 21 10 21 -26 0 -16 12 15 18 66 11 131 13 156 4 23 -8 31 -7 35
4 3 8 12 14 21 14 8 0 15 5 15 10 0 6 13 10 29 10 24 0 29 -5 35 -31 10 -54 7
-164 -6 -177 -9 -9 -9 -12 0 -12 10 0 12 -22 10 -84 -4 -99 2 -95 -128 -96
-61 -1 -79 -4 -63 -10 29 -12 20 -41 -10 -36 -16 2 -22 10 -22 30 1 14 -4 26
-10 26 -7 0 -12 -13 -12 -30 0 -16 5 -30 10 -30 6 0 18 -7 28 -16 13 -12 42
-16 131 -16 129 -1 248 10 248 23 0 5 -7 9 -15 9 -8 0 -15 5 -15 10 0 6 7 10
16 10 11 0 14 5 10 16 -3 9 -6 17 -6 19 0 1 -20 0 -44 -2 -25 -3 -55 -3 -68 0
l-23 6 2 192 c2 106 4 194 6 195 6 6 238 7 243 1 16 -15 -11 -29 -46 -23 -44
7 -70 0 -70 -19 0 -17 19 -21 86 -17 45 3 53 7 56 25 2 18 12 23 58 29 30 4
109 8 175 8 66 0 168 3 228 7 89 5 105 8 96 19 -6 8 -10 14 -8 15 26 6 157 4
153 -3 -3 -4 4 -8 15 -8 37 0 22 -17 -15 -18 -65 -3 -49 -12 19 -12 38 0 67 4
67 10 0 6 7 10 16 10 8 0 12 5 9 10 -3 6 -19 8 -35 5 -16 -3 -32 -1 -35 5 -4
6 13 11 42 12 78 2 78 2 77 26 0 12 3 22 7 22 9 0 18 -37 14 -59 -2 -13 3 -18
18 -17 13 1 22 -5 22 -14 0 -11 -16 -16 -67 -20 -153 -12 -54 -25 145 -20 31
1 81 -3 110 -9 28 -5 126 -20 217 -32 91 -12 172 -26 180 -30 8 -4 -54 -8
-138 -8 -85 0 -156 -2 -159 -5 -3 -3 186 -6 421 -6 275 0 426 4 426 10 0 6
-70 11 -182 12 -256 2 -266 2 -272 9 -3 3 -1 22 5 42 6 21 9 50 8 65 -1 15 -1
43 0 62 l3 35 8 -30 c5 -16 10 -57 12 -90 l4 -59 148 2 c82 1 157 4 167 7 21
7 26 23 7 22 -7 0 -31 1 -54 1 -51 2 -64 26 -64 117 0 55 3 65 18 65 15 1 15
2 1 10 -11 6 -16 26 -18 62 -1 29 -5 56 -9 60 -4 3 -36 3 -71 -1 -76 -9 -91
-24 -91 -93 0 -36 4 -48 15 -48 20 0 19 -14 -2 -31 -15 -12 -16 -12 -10 4 3 9
2 17 -3 17 -6 0 -10 9 -10 20 0 11 -4 20 -10 20 -5 0 -10 -7 -10 -15 0 -8 -9
-19 -20 -25 -19 -10 -20 -8 -20 105 0 63 4 115 9 115 5 0 11 -4 13 -9 2 -6 21
-6 48 -1 25 4 59 10 75 13 17 2 55 10 85 16 123 24 150 28 155 21 5 -9 7 -375
2 -410 -4 -27 11 -38 54 -39 26 -1 85 50 72 62 -3 4 -1 7 6 7 17 0 41 25 41
43 0 14 58 33 68 22 3 -3 -2 -5 -11 -5 -10 0 -17 -8 -17 -19 0 -11 -5 -23 -11
-26 -6 -4 -8 -13 -6 -19 3 -8 -9 -18 -29 -25 -22 -8 -34 -19 -34 -31 0 -29
-11 -50 -26 -50 -8 0 -14 -4 -14 -10 0 -5 10 -10 21 -10 18 0 19 -2 9 -15 -10
-12 -9 -20 6 -42 10 -16 20 -48 21 -73 4 -70 17 -115 35 -118 9 -2 16 3 15 10
0 7 1 30 1 51 3 55 25 42 29 -17 2 -26 8 -56 13 -66 18 -34 12 -60 -13 -60
-16 0 -26 9 -36 33 -12 31 -13 31 -21 9 -5 -12 -7 -36 -3 -52 5 -27 9 -30 47
-30 22 0 51 -3 64 -6 20 -6 22 -3 22 29 0 21 -6 39 -15 44 -16 10 -17 24 -9
181 4 61 10 112 15 112 5 0 9 52 9 115 0 108 -1 115 -20 115 -17 0 -19 5 -14
33 4 17 13 37 20 43 18 15 19 130 2 137 -10 4 -10 6 0 6 9 1 12 49 12 206 l0
205 -27 -6 c-16 -4 -47 -20 -70 -37 -23 -16 -52 -31 -65 -33 -13 -1 -36 -7
-53 -13 -72 -23 -175 -48 -175 -41 0 4 21 26 46 48 71 66 42 49 -46 -25 -79
-67 -80 -68 -50 -71 l30 -3 0 -74 c0 -57 -3 -74 -16 -79 -26 -10 -46 -7 -58 9
-6 9 -25 18 -41 20 -17 2 -30 4 -30 5 0 2 -31 7 -70 14 l-70 11 -3 60 c-2 32
2 69 9 81 7 14 9 37 5 61 -14 75 -17 335 -4 350 8 10 8 17 -1 26 -9 9 -13 7
-17 -11 -4 -12 -13 -22 -21 -22 -8 0 -13 -8 -12 -17 1 -10 1 -46 0 -81 l-1
-62 -37 16 c-21 8 -58 22 -83 31 -25 8 -59 21 -76 29 -32 15 -84 6 -84 -16 0
-12 30 -13 48 -2 14 10 166 -37 205 -63 20 -13 25 -24 26 -66 0 -28 3 -55 6
-60 4 -5 -3 -9 -13 -9 -17 0 -20 -6 -18 -42 2 -47 12 -71 27 -63 5 4 9 -5 9
-19 0 -14 -2 -26 -4 -26 -2 0 -35 12 -72 26 -64 24 -80 26 -227 26 -88 0 -161
-3 -165 -6 -3 -3 15 -6 39 -6 32 -1 40 -3 28 -10 -24 -14 -11 -84 17 -88 18
-3 21 3 22 39 1 24 -3 46 -10 50 -7 4 39 9 102 11 108 3 119 1 190 -27 l75
-30 3 -48 3 -48 -34 14 c-44 19 -187 31 -207 17 -11 -7 -12 -10 -2 -10 10 0
13 -18 11 -72 -3 -79 7 -224 17 -239 8 -14 -7 -99 -18 -99 -6 0 -7 7 -4 16 11
29 -13 44 -68 43 -28 -1 -41 -4 -28 -6 17 -3 22 -11 22 -34 0 -17 4 -38 9 -48
9 -15 4 -17 -40 -17 -27 -1 -49 3 -49 8 0 5 -17 9 -37 8 -21 -1 -42 -1 -48 0
-5 1 -14 2 -19 1 -4 -1 -6 38 -3 86 3 53 2 80 -3 68 -5 -11 -9 -15 -10 -10 -1
6 -8 -7 -15 -27 -10 -27 -11 -47 -4 -70 13 -48 12 -51 -22 -44 -27 5 -30 4
-19 -9 9 -10 31 -15 72 -15 34 0 57 -4 53 -9 -3 -5 5 -12 17 -14 25 -5 -40 0
-112 9 -61 7 -69 10 -69 31 0 10 -4 156 -7 326 -4 169 -11 307 -15 307 -5 0
-9 -24 -9 -54 l0 -54 -60 29 c-53 26 -146 41 -126 22 4 -5 25 -8 45 -9 23 0
56 -12 87 -30 l49 -31 2 -238 c1 -138 -2 -234 -7 -229 -5 5 -10 73 -12 152 -1
78 -6 142 -10 142 -5 0 -8 -14 -8 -31 0 -31 0 -31 -25 -15 -14 9 -30 14 -35
11 -6 -3 -10 -1 -10 4 0 6 11 11 25 11 26 0 45 30 45 71 0 16 -7 19 -56 19
-34 0 -53 4 -49 10 3 6 2 10 -4 10 -11 0 -31 -62 -31 -99 0 -17 -4 -22 -16
-17 -9 3 -18 6 -20 6 -2 0 -4 7 -4 15 0 8 6 12 14 9 17 -6 23 45 18 149 l-4
67 -42 0 c-23 0 -51 -7 -62 -15 -13 -10 -14 -14 -4 -13 8 2 16 -6 18 -19 2
-16 -2 -23 -12 -23 -20 0 -20 -14 -1 -34 9 -9 15 -32 14 -58 0 -24 -3 -37 -6
-30 -2 6 -9 9 -14 6 -12 -7 -80 52 -71 61 4 4 -2 3 -14 -3 -16 -9 -25 -7 -46
11 -15 12 -35 29 -45 37 -31 26 -90 40 -103 25 -7 -9 -23 -12 -47 -8 -31 5
-35 4 -29 -13 7 -24 -29 -68 -63 -77 l-23 -6 22 24 c13 14 27 22 31 19 5 -3 9
2 9 10 0 25 -36 18 -55 -10 -13 -21 -19 -24 -26 -13 -5 8 -9 24 -9 37 0 13 -4
20 -10 17 -5 -3 -10 -28 -10 -56 0 -27 -4 -49 -10 -49 -5 0 -10 6 -10 13 0 15
-76 22 -85 8 -4 -7 -15 -7 -32 0 -15 5 -32 8 -39 5 -7 -3 -10 2 -7 15 4 14 0
19 -16 19 -11 0 -20 6 -18 13 1 7 -6 11 -18 9 -39 -6 -46 -12 -40 -31 4 -13
-2 -23 -20 -35 -14 -9 -25 -24 -25 -32 0 -13 -7 -15 -31 -10 -18 3 -38 1 -45
-5 -11 -9 -14 -6 -14 19 0 23 6 32 30 42 29 12 30 14 30 81 0 48 -4 69 -12 69
-8 1 -7 5 4 13 12 9 18 30 19 68 3 62 -4 79 -29 79 -15 0 -15 -2 -2 -10 13 -8
12 -10 -3 -10 -10 0 -38 5 -63 11 -26 7 -49 8 -54 3 -11 -12 -22 -226 -14
-269 4 -26 13 -36 35 -44 16 -5 29 -17 29 -26 0 -13 -9 -15 -47 -11 -27 3 -50
6 -53 7 -3 1 -8 1 -12 0 -5 0 -8 4 -8 10 0 8 -4 8 -12 1 -7 -5 -35 -10 -61
-10 -26 -1 -52 -4 -58 -8 -6 -3 -27 5 -47 19 -21 14 -48 24 -62 22 -14 -2 -29
-4 -35 -4 -5 -1 -16 -5 -24 -10 -12 -8 -12 -12 -2 -24 8 -10 9 -17 1 -22 -5
-3 -10 1 -10 9 0 9 -5 16 -11 16 -6 0 -9 -7 -5 -15 3 -10 -1 -15 -13 -15 -10
0 -22 -10 -27 -22 -11 -32 -17 140 -9 277 l7 110 89 33 c85 32 90 32 120 17
24 -13 34 -14 43 -5 18 18 -22 42 -64 37 -19 -2 -70 -15 -112 -29 l-78 -26 0
33 c0 19 -4 36 -9 40 -17 10 -24 -65 -18 -194 3 -69 3 -168 0 -219 -6 -88 -7
-92 -24 -76 -13 12 -28 14 -58 9 -23 -4 -43 -11 -46 -15 -3 -5 -17 -5 -31 0
-14 6 -36 7 -49 4 -12 -3 -26 -1 -29 5 -9 15 -36 2 -37 -18 0 -12 -2 -12 -9 4
-5 11 -6 46 -3 78 5 49 3 60 -13 72 -13 10 -15 17 -8 22 17 12 34 72 23 78 -5
4 -6 11 -3 17 4 6 6 33 5 61 0 28 4 56 10 63 6 7 8 18 4 23 -3 6 1 26 10 45 9
19 15 43 12 53 -4 15 -5 14 -6 -4 -2 -35 -19 -36 -36 -4 -19 37 -14 77 9 73
12 -2 16 5 15 30 -1 24 -3 27 -6 11 -6 -34 -23 -28 -23 8 0 17 4 28 10 24 6
-4 10 6 9 22 0 25 -1 26 -9 8 -8 -18 -9 -18 -9 -2 -1 10 6 28 14 41 14 22 14
25 0 40 -19 18 -24 19 -45 6z m2 -32 c-7 -7 -12 -8 -12 -2 0 14 12 26 19 19 2
-3 -1 -11 -7 -17z m-595 -442 c-8 -21 -51 -40 -72 -32 -10 3 -15 15 -13 28 2
18 11 24 38 29 40 6 55 -2 47 -25z m156 -4 c21 -25 4 -80 -28 -88 -34 -8 -55
11 -55 52 0 57 47 78 83 36z m454 -29 c-3 -10 -5 -4 -5 12 0 17 2 24 5 18 2
-7 2 -21 0 -30z m3307 -47 c12 -120 14 -116 -51 -115 -32 1 -71 4 -88 8 -16 4
-52 1 -80 -6 -27 -7 -51 -11 -52 -9 -2 2 -4 30 -4 62 -1 45 3 61 17 71 17 13
19 11 22 -16 6 -53 52 -28 52 28 0 14 6 21 20 21 11 0 20 -6 20 -13 0 -7 7
-22 15 -33 15 -19 15 -19 30 0 8 11 15 29 15 41 0 18 6 21 39 21 l39 0 6 -60z
m-3920 -28 c-10 -10 -31 -18 -51 -18 -30 0 -33 3 -33 29 0 26 4 30 33 33 18 2
40 -3 50 -11 16 -13 16 -15 1 -33z m546 -48 c0 -5 -17 -11 -37 -11 l-38 -2 40
-6 c40 -6 40 -6 43 -53 2 -36 0 -48 -11 -48 -8 0 -21 -9 -28 -19 -19 -26 -59
-38 -59 -17 0 9 8 16 18 17 13 0 12 3 -5 11 -19 9 -23 19 -23 55 0 28 4 43 13
43 8 0 7 3 -3 10 -8 5 -25 7 -37 3 -13 -3 -23 -1 -23 5 0 6 26 13 58 15 31 2
65 4 75 5 9 1 17 -2 17 -8z m-172 -22 c3 -14 -9 -16 -103 -14 -58 2 -108 5
-111 9 -3 3 30 8 73 12 43 3 85 8 93 10 28 6 45 0 48 -17z m-575 5 c-7 -2 -19
-2 -25 0 -7 3 -2 5 12 5 14 0 19 -2 13 -5z m816 -70 c-5 -38 -9 -99 -10 -138
-3 -69 -3 -68 -8 25 -4 58 -2 98 4 102 6 5 5 8 -2 8 -14 0 -17 28 -7 54 3 9
12 16 18 16 9 0 10 -18 5 -67z m-208 35 c1 -7 3 -23 4 -35 1 -13 -2 -23 -6
-23 -5 0 -9 7 -9 16 0 8 -4 13 -10 9 -13 -8 -61 5 -54 16 3 5 16 9 30 9 13 0
24 5 24 10 0 15 20 12 21 -2z m2013 -20 c4 -17 2 -28 -4 -28 -5 0 -10 14 -10
32 0 36 4 35 14 -4z m114 -35 c-2 -15 -9 -28 -16 -31 -11 -3 -13 5 -8 34 3 22
6 44 6 49 0 6 5 2 11 -8 6 -10 9 -29 7 -44z m-2359 21 c-31 -17 -49 -17 -49 0
0 18 17 24 48 18 l25 -5 -24 -13z m-89 6 c0 -6 -11 -9 -25 -7 -37 5 -42 17 -7
17 18 0 32 -5 32 -10z m210 -30 c0 -5 3 -9 8 -9 4 1 14 1 22 0 13 -1 13 -2 0
-11 -13 -8 -12 -10 3 -10 9 0 17 -5 17 -11 0 -5 -5 -7 -11 -3 -6 4 -32 12 -58
19 -44 12 -45 13 -21 23 32 14 40 14 40 2z m-216 -16 c3 -9 6 -28 6 -44 0 -16
6 -31 13 -33 6 -3 2 -6 -11 -6 -13 -1 -21 3 -18 8 3 4 -1 17 -9 27 -19 25 -19
64 -1 64 8 0 17 -7 20 -16z m2034 9 c-10 -2 -28 -2 -40 0 -13 2 -5 4 17 4 22
1 32 -1 23 -4z m-1715 -30 c-24 -8 -26 -8 -29 9 -2 15 1 16 19 6 13 -7 17 -13
10 -15z m975 -8 c0 -23 -3 -23 -80 -24 -44 0 -95 -3 -114 -7 -27 -5 -34 -3
-34 10 0 9 8 16 17 16 16 0 16 1 0 13 -15 10 -2 12 73 12 50 0 96 3 102 6 19
12 36 -1 36 -26z m62 -80 c0 -70 -4 -115 -10 -115 -6 0 -10 38 -10 94 0 71 -4
98 -15 110 -13 13 -13 15 7 19 13 2 24 5 26 6 1 0 2 -51 2 -114z m55 78 c10
-24 12 -39 5 -43 -6 -4 -8 -17 -6 -31 3 -13 5 -42 6 -64 2 -39 3 -39 10 -10 4
17 8 23 10 15 1 -11 4 -9 10 5 8 18 9 18 9 -5 1 -15 7 -32 14 -39 9 -11 9 -12
0 -7 -9 5 -11 2 -6 -9 3 -9 15 -21 27 -25 17 -7 15 -9 -15 -9 -24 -1 -39 4
-43 14 -3 8 -14 15 -25 15 -12 0 -20 8 -22 23 -5 28 1 207 7 207 2 0 11 -17
19 -37z m167 20 c2 -10 2 -28 0 -40 -4 -21 -10 -23 -65 -23 -65 0 -69 14 -8
25 39 7 51 13 51 25 0 4 -19 6 -42 3 -24 -3 -40 -3 -37 0 4 5 63 22 91 26 3 1
8 -7 10 -16z m638 -30 c0 -23 -6 -33 -19 -38 -17 -5 -18 -10 -9 -35 5 -17 14
-30 19 -30 13 0 11 14 -3 28 -16 16 -4 25 20 18 20 -7 46 -59 35 -70 -4 -3 -2
-6 3 -6 5 0 18 10 28 21 15 18 20 19 27 8 8 -12 11 -12 19 1 5 8 10 25 10 37
0 30 20 40 21 11 1 -26 5 -58 13 -105 l5 -32 -57 4 c-35 3 -61 10 -68 20 -7
10 -27 15 -57 15 -30 0 -47 5 -50 14 -5 12 -26 14 -116 9 l-111 -5 0 31 c0 32
0 32 68 35 9 1 16 -5 14 -12 -1 -8 2 -11 8 -7 5 3 10 17 10 31 0 13 5 24 10
24 6 0 10 -4 10 -10 0 -5 9 -10 20 -10 13 0 20 7 20 20 0 11 6 20 14 20 8 0
17 8 20 18 3 9 4 -2 3 -25 -2 -39 0 -43 20 -43 21 0 23 5 23 49 0 46 2 49 25
47 21 -1 25 -6 25 -33z m1685 27 c3 -5 -1 -10 -9 -10 -9 0 -16 -8 -17 -17 0
-15 -2 -15 -8 2 -5 11 -7 23 -4 28 6 10 31 9 38 -3z m-3795 -10 c-19 -4 -28
-8 -20 -9 10 -2 8 -6 -8 -13 -25 -13 -37 -6 -29 17 5 10 19 15 49 14 l43 -2
-35 -7z m1794 -50 c-5 -5 -10 7 -11 28 -2 37 -2 37 9 9 6 -16 6 -33 2 -37z
m-1721 43 c-7 -2 -19 -2 -25 0 -7 3 -2 5 12 5 14 0 19 -2 13 -5z m3044 -49 c0
-57 -12 -72 -21 -26 -15 71 -14 78 4 79 14 1 17 -7 17 -53z m-2890 30 c-3 -3
-12 -4 -19 -1 -8 3 -5 6 6 6 11 1 17 -2 13 -5z m449 -61 l8 -68 10 69 c10 64
12 67 23 45 7 -13 12 -35 11 -49 -1 -45 2 -60 12 -60 6 0 10 19 10 43 1 34 3
38 11 24 6 -9 14 -15 19 -12 5 3 12 0 16 -6 4 -7 3 -9 -4 -5 -6 3 -13 2 -16
-3 -3 -5 3 -11 14 -14 12 -3 20 -14 20 -26 0 -18 -7 -21 -42 -23 l-43 -1 44
-4 c43 -4 44 -5 20 -17 -16 -8 -23 -19 -21 -34 2 -12 -2 -22 -8 -22 -6 0 -8
11 -6 25 6 31 -4 34 -135 37 -78 2 -110 -1 -122 -11 -10 -8 -17 -9 -17 -3 0
18 22 26 80 33 l55 6 -65 1 c-70 2 -89 -5 -88 -28 3 -41 -4 -58 -23 -63 -20
-5 -21 -3 -15 40 3 25 6 59 6 74 0 25 4 29 28 29 15 0 37 -6 48 -14 24 -17
128 -16 146 2 11 11 9 12 -6 6 -13 -5 -17 -4 -12 4 14 23 14 51 0 63 -11 9
-14 9 -14 0 0 -28 -29 -39 -108 -42 -45 -2 -82 -3 -82 -2 0 1 4 13 10 27 9 23
14 26 47 21 21 -3 67 1 103 9 36 7 68 14 72 15 3 0 10 -29 14 -66z m531 45
c-3 -8 -6 -5 -6 6 -1 11 2 17 5 13 3 -3 4 -12 1 -19z m370 -4 c0 -9 -6 -13
-14 -9 -8 3 -17 5 -19 5 -2 0 -4 6 -4 14 0 9 7 12 18 9 10 -2 19 -11 19 -19z
m99 14 c4 -7 4 -10 -1 -6 -4 4 -20 1 -36 -8 -16 -8 -29 -13 -29 -10 0 2 -3 11
-6 20 -5 13 1 16 29 16 20 0 39 -6 43 -12z m763 -75 c-1 -53 -6 -73 -15 -73
-8 0 -16 -11 -20 -25 -4 -15 -13 -25 -23 -24 -10 0 -11 2 -3 6 6 2 12 11 12
19 0 9 -4 13 -9 10 -16 -10 -40 5 -34 20 3 8 2 14 -3 13 -36 -6 -54 2 -54 27
0 24 3 25 27 19 15 -3 32 -7 37 -8 5 -1 13 15 16 36 4 20 3 37 -2 37 -5 0 -6
5 -3 10 4 6 22 9 41 8 l35 -2 -2 -73z m874 55 c-4 -13 -7 -38 -7 -56 0 -18 -3
-27 -6 -21 -6 8 -9 8 -14 0 -4 -6 -12 -11 -19 -11 -6 0 -2 7 9 15 19 14 19 14
-2 15 -30 0 -38 36 -13 61 10 10 28 19 40 19 17 0 19 -4 12 -22z m-3170 5 c-7
-2 -21 -2 -30 0 -10 3 -4 5 12 5 17 0 24 -2 18 -5z m2197 -3 c0 -5 -11 -10
-25 -10 -14 0 -25 5 -25 10 0 6 11 10 25 10 14 0 25 -4 25 -10z m-2120 -10 c8
-5 12 -12 8 -15 -8 -8 -58 5 -58 16 0 12 31 11 50 -1z m77 4 c-3 -3 -12 -4
-19 -1 -8 3 -5 6 6 6 11 1 17 -2 13 -5z m73 -19 c0 -14 -6 -25 -12 -25 -10 0
-10 -2 -1 -8 6 -4 13 -34 14 -67 l3 -60 -57 -3 -57 -3 0 61 c0 53 2 60 20 61
36 2 40 4 43 14 1 6 -11 11 -28 13 -16 2 -34 8 -40 14 -7 7 2 8 29 4 33 -6 38
-5 33 8 -5 12 0 16 23 16 25 0 30 -4 30 -25z m-212 -50 c1 -33 -2 -66 -7 -74
-5 -7 -30 -16 -56 -19 l-47 -5 18 28 c12 18 17 42 15 67 -3 47 13 70 48 66 24
-3 26 -7 29 -63z m719 59 c-3 -3 -12 -4 -19 -1 -8 3 -5 6 6 6 11 1 17 -2 13
-5z m56 -1 c-7 -2 -19 -2 -25 0 -7 3 -2 5 12 5 14 0 19 -2 13 -5z m144 -35
c48 3 72 8 80 20 7 8 22 16 34 17 18 2 20 -3 19 -49 -3 -102 -1 -119 15 -112
8 3 15 2 15 -3 0 -5 -16 -11 -35 -13 -19 -2 -35 0 -35 4 0 4 7 8 15 8 17 0 20
16 6 24 -5 4 -12 0 -15 -6 -4 -8 -8 -9 -11 -3 -18 35 -25 37 -101 39 l-79 1
-1 58 c-1 53 1 56 12 35 11 -21 18 -23 81 -20z m393 11 c0 -6 -4 -7 -10 -4 -5
3 -10 11 -10 16 0 6 5 7 10 4 6 -3 10 -11 10 -16z m-1509 -16 c0 -16 2 -39 4
-53 2 -14 0 -36 -3 -50 -6 -25 -6 -25 -13 5 -11 47 -10 125 1 125 6 0 10 -12
11 -27z m1783 12 c4 -10 -1 -15 -14 -15 -11 0 -20 7 -20 15 0 8 6 15 14 15 8
0 16 -7 20 -15z m-167 -11 c3 -9 1 -19 -6 -23 -16 -10 -4 -39 20 -46 23 -8 25
-33 4 -41 -22 -9 -18 -34 6 -34 11 0 17 -5 14 -10 -4 -6 -11 -8 -16 -4 -5 3
-17 0 -26 -8 -12 -9 -15 -9 -9 0 4 7 2 12 -7 12 -15 0 -27 59 -27 131 0 33 3
39 20 39 11 0 23 -7 27 -16z m105 4 c-9 -9 -15 -9 -24 0 -9 9 -7 12 12 12 19
0 21 -3 12 -12z m118 -19 c0 -20 -4 -29 -12 -27 -17 6 -18 58 -1 58 8 0 13
-12 13 -31z m-403 15 c-3 -3 -12 -4 -19 -1 -8 3 -5 6 6 6 11 1 17 -2 13 -5z
m111 -103 c-2 -8 -18 -14 -40 -16 l-37 -2 18 26 c13 19 16 34 10 54 -5 20 -4
27 6 27 8 0 15 -14 18 -32 4 -31 4 -31 6 7 l3 40 9 -45 c5 -25 8 -51 7 -59z
m-1282 72 c16 -21 19 -153 4 -153 -5 0 -10 -4 -10 -10 0 -5 17 -11 38 -11 37
-1 37 -1 7 -9 -55 -14 -68 -12 -62 10 3 11 2 18 -3 15 -4 -3 -15 13 -24 35
-20 49 -20 56 -2 41 19 -16 27 -2 28 54 1 49 4 54 24 28z m1214 -3 c0 -5 -7
-10 -15 -10 -8 0 -15 5 -15 10 0 6 7 10 15 10 8 0 15 -4 15 -10z m1567 -12
c-3 -8 -6 -5 -6 6 -1 11 2 17 5 13 3 -3 4 -12 1 -19z m-2040 -5 c11 -29 30
-43 60 -44 27 -2 27 -2 3 -6 -34 -6 -47 -21 -27 -29 26 -10 20 -19 -12 -19
-26 0 -31 5 -42 43 -6 23 -16 42 -21 42 -5 0 -8 -5 -6 -12 4 -11 -33 -58 -46
-58 -3 0 -6 7 -6 15 0 9 -7 18 -15 21 -8 4 -12 10 -9 15 3 5 -3 9 -13 9 -17 1
-17 1 0 15 12 8 31 11 52 8 19 -3 35 -1 39 6 11 17 36 13 43 -6z m2355 -83 l3
-80 -32 0 c-23 0 -31 -4 -27 -13 3 -8 -2 -14 -11 -14 -8 0 -16 3 -16 6 -13 68
-2 116 27 116 14 0 20 8 22 33 2 19 9 32 17 32 10 0 14 -21 17 -80z m-1519 38
c-2 -5 -3 -12 -3 -18 0 -5 -17 -10 -37 -10 -33 0 -38 3 -39 23 -2 21 1 23 40
18 22 -4 40 -9 39 -13z m191 2 c17 -17 0 -21 -29 -8 -23 10 -29 10 -33 0 -5
-17 -42 -15 -42 2 0 8 8 17 18 19 23 7 74 -1 86 -13z m80 4 c22 -8 20 -23 -1
-19 -10 2 -27 4 -38 5 l-20 1 20 9 c11 5 21 9 22 9 1 1 8 -2 17 -5z m-754 -35
c0 -5 -9 -9 -20 -9 -11 0 -20 6 -20 14 0 9 7 12 20 9 11 -3 20 -9 20 -14z
m357 15 c-3 -3 -12 -4 -19 -1 -8 3 -5 6 6 6 11 1 17 -2 13 -5z m-1243 -56 c26
-3 32 -1 28 11 -4 11 1 13 29 6 19 -4 49 -7 67 -6 20 0 32 -4 32 -12 0 -8 2
-9 8 -1 10 16 69 27 76 15 4 -5 2 -12 -4 -16 -5 -3 -10 -15 -10 -26 0 -13 -7
-19 -22 -19 -13 0 -34 -3 -48 -6 -17 -5 -22 -3 -15 4 6 5 19 12 30 14 23 4 18
24 -5 21 -76 -12 -82 -11 -76 3 7 18 2 18 -34 -1 -16 -8 -36 -12 -44 -9 -11 4
-16 0 -15 -12 0 -11 2 -14 5 -9 2 6 29 8 61 6 68 -4 47 -19 -29 -20 -39 -1
-49 3 -60 22 -7 12 -11 26 -10 31 2 5 -7 5 -20 1 -13 -4 -44 -10 -70 -12 -38
-4 -48 -2 -48 10 0 16 72 30 108 20 18 -4 22 -1 23 18 2 22 2 22 6 -2 3 -22
10 -28 37 -31z m2518 22 c14 0 18 -5 14 -16 -3 -9 -6 -25 -6 -36 0 -17 -5 -20
-35 -16 -22 2 -34 0 -32 -6 4 -12 102 -20 126 -11 9 3 10 10 4 18 -5 6 -10 27
-12 44 -2 27 1 32 13 27 9 -3 16 -15 16 -25 0 -10 7 -19 15 -19 8 0 15 7 15
15 0 13 4 14 21 5 11 -7 18 -14 16 -17 -3 -2 -1 -18 5 -34 17 -50 -3 -62 -87
-55 -38 4 -92 11 -120 16 -27 5 -72 12 -100 15 -82 10 -78 23 8 26 45 2 60 7
68 21 5 10 16 18 24 18 9 0 15 10 16 28 0 15 3 21 6 15 2 -7 14 -13 25 -13z
m-2802 -5 c9 -10 5 -15 -20 -20 -25 -5 -30 -11 -30 -36 0 -29 -1 -29 -55 -29
-37 0 -55 4 -55 13 0 25 18 39 46 37 56 -4 48 3 -11 11 -33 4 -76 11 -95 15
l-35 8 35 6 c70 12 208 9 220 -5z m985 5 c-3 -5 -26 -10 -50 -10 -24 0 -47 5
-50 10 -4 6 15 10 50 10 35 0 54 -4 50 -10z m-1265 -10 c0 -5 -2 -10 -4 -10
-3 0 -8 5 -11 10 -3 6 -1 10 4 10 6 0 11 -4 11 -10z m966 -5 c12 -12 12 -15 2
-16 -9 0 -9 -2 -1 -5 7 -3 9 -12 6 -20 -6 -15 -50 -10 -68 9 -7 7 -4 8 10 3
16 -6 18 -5 7 6 -9 9 -19 10 -41 1 -21 -8 -32 -8 -40 0 -20 20 -11 26 47 30
31 2 58 4 60 5 2 1 10 -5 18 -13z m77 1 c4 -10 1 -13 -9 -9 -8 3 -22 -1 -31
-8 -15 -13 -15 -12 -2 9 16 25 34 29 42 8z m297 -1 c10 -12 10 -15 -4 -15 -9
0 -16 7 -16 15 0 8 2 15 4 15 2 0 9 -7 16 -15z m175 -13 c-6 -7 -34 11 -29 19
3 5 11 3 19 -4 7 -6 12 -13 10 -15z m293 21 c-10 -2 -26 -2 -35 0 -10 3 -2 5
17 5 19 0 27 -2 18 -5z m190 0 c-15 -2 -42 -2 -60 0 -18 2 -6 4 27 4 33 0 48
-2 33 -4z m-368 -12 c0 -12 -21 -19 -38 -13 -11 4 -11 6 0 13 17 11 38 11 38
0z m2330 -6 c0 -8 -4 -15 -10 -15 -5 0 -10 7 -10 15 0 8 5 15 10 15 6 0 10 -7
10 -15z m-2835 -15 c3 -5 -1 -10 -10 -10 -9 0 -13 5 -10 10 3 6 8 10 10 10 2
0 7 -4 10 -10z m-1015 -15 c0 -8 -7 -15 -16 -15 -14 0 -14 3 -4 15 7 8 14 15
16 15 2 0 4 -7 4 -15z m-126 -10 c22 -17 15 -31 -20 -38 -20 -3 -27 0 -35 20
-5 13 -9 26 -9 29 0 10 46 2 64 -11z m499 -4 c3 -14 0 -17 -13 -14 -9 2 -17
11 -17 19 0 21 24 17 30 -5z m-418 -11 c3 -5 2 -10 -4 -10 -5 0 -13 5 -16 10
-3 6 -2 10 4 10 5 0 13 -4 16 -10z m449 -18 c3 -5 -1 -9 -9 -9 -8 0 -12 4 -9
9 3 4 7 8 9 8 2 0 6 -4 9 -8z m43 -3 c-9 -6 -15 -14 -12 -20 4 -5 1 -9 -4 -9
-6 0 -11 4 -11 8 0 12 22 32 35 32 5 0 2 -5 -8 -11z m91 4 c-10 -2 -26 -2 -35
0 -10 3 -2 5 17 5 19 0 27 -2 18 -5z m152 0 c0 -5 -23 -9 -50 -9 -28 -1 -50 3
-50 7 0 5 23 9 50 9 28 0 50 -3 50 -7z m149 -10 c0 -11 -3 -13 -6 -5 -2 6 -9
10 -14 6 -5 -3 -9 0 -9 5 0 6 7 11 15 11 8 0 15 -8 14 -17z m-759 -13 c-14 -4
-47 -8 -75 -8 -39 0 -45 2 -25 8 14 4 48 8 75 8 39 0 45 -2 25 -8z m-215 -9
c-20 -4 -29 -12 -27 -23 1 -9 -4 -18 -13 -22 -11 -4 -15 2 -15 24 0 29 2 30
43 29 38 -1 39 -2 12 -8z m168 -28 c-7 -2 -19 -2 -25 0 -7 3 -2 5 12 5 14 0
19 -2 13 -5z m335 -30 c-10 -2 -26 -2 -35 0 -10 3 -2 5 17 5 19 0 27 -2 18 -5z
m1030 -301 c2 -7 -7 -12 -22 -12 -27 0 -35 15 -13 23 17 7 30 3 35 -11z"/>
<path d="M2440 771 c0 -6 9 -8 20 -6 11 2 20 0 20 -6 0 -5 7 -9 16 -9 14 0 14
2 0 15 -16 17 -56 20 -56 6z"/>
<path d="M1118 703 c6 -2 18 -2 25 0 6 3 1 5 -13 5 -14 0 -19 -2 -12 -5z"/>
<path d="M2875 799 c-4 -6 -3 -15 3 -21 6 -6 11 -4 15 6 7 18 -9 31 -18 15z"/>
<path d="M961 1434 c0 -11 3 -14 6 -6 3 7 2 16 -1 19 -3 4 -6 -2 -5 -13z"/>
<path d="M4287 1321 c-4 -17 -3 -21 5 -13 5 5 8 16 6 23 -3 8 -7 3 -11 -10z"/>
<path d="M4218 1313 c7 -3 16 -2 19 1 4 3 -2 6 -13 5 -11 0 -14 -3 -6 -6z"/>
<path d="M6 1085 c-3 -8 -1 -15 4 -15 6 0 10 7 10 15 0 8 -2 15 -4 15 -2 0 -6
-7 -10 -15z"/>
<path d="M164 1055 c-3 -8 -4 -20 -1 -27 4 -8 6 -6 6 5 1 9 6 17 11 17 6 0 10
5 10 10 0 15 -20 12 -26 -5z"/>
<path d="M3275 1015 c-101 -29 -230 -73 -214 -74 17 -1 23 -21 34 -111 3 -25
11 -49 17 -55 7 -7 8 16 3 82 l-6 91 54 20 c30 12 83 28 118 37 35 9 66 19 68
21 8 8 -24 3 -74 -11z"/>
<path d="M2660 995 c0 -8 5 -15 10 -15 6 0 10 7 10 15 0 8 -4 15 -10 15 -5 0
-10 -7 -10 -15z"/>
<path d="M3018 933 c7 -3 16 -2 19 1 4 3 -2 6 -13 5 -11 0 -14 -3 -6 -6z"/>
<path d="M3305 920 c8 -13 -30 -27 -93 -36 -27 -3 -54 -9 -59 -13 -7 -4 -6
-37 2 -94 7 -49 10 -100 7 -113 -5 -29 13 -32 21 -3 3 11 5 61 5 112 0 57 4
93 11 95 12 4 12 5 14 -85 2 -66 8 -79 32 -70 12 5 15 24 15 87 0 64 3 80 15
80 12 0 15 -13 15 -61 0 -64 12 -99 35 -99 19 0 28 33 21 78 -3 20 -7 58 -8
85 -1 39 -5 47 -20 47 -11 0 -16 -5 -13 -10z"/>
<path d="M3024 833 c12 -43 10 -104 -4 -113 -13 -8 -13 -10 0 -10 29 0 40 23
40 82 0 52 -2 58 -21 58 -15 0 -19 -5 -15 -17z"/>
<path d="M3950 706 c0 -56 4 -63 28 -47 21 13 12 95 -10 99 -15 3 -18 -5 -18
-52z"/>
<path d="M3032 635 c0 -16 2 -22 5 -12 2 9 2 23 0 30 -3 6 -5 -1 -5 -18z"/>
<path d="M104 549 c-3 -6 -2 -15 3 -20 13 -13 43 -1 43 17 0 16 -36 19 -46 3z"/>
<path d="M2713 543 c15 -2 39 -2 55 0 15 2 2 4 -28 4 -30 0 -43 -2 -27 -4z"/>
<path d="M4018 503 c7 -3 16 -2 19 1 4 3 -2 6 -13 5 -11 0 -14 -3 -6 -6z"/>
<path d="M2395 460 c-25 -11 182 -10 210 1 11 4 -25 8 -85 8 -58 0 -114 -4
-125 -9z"/>
<path d="M2658 463 c7 -3 16 -2 19 1 4 3 -2 6 -13 5 -11 0 -14 -3 -6 -6z"/>
<path d="M1873 453 c9 -2 25 -2 35 0 9 3 1 5 -18 5 -19 0 -27 -2 -17 -5z"/>
<path d="M1948 453 c7 -3 16 -2 19 1 4 3 -2 6 -13 5 -11 0 -14 -3 -6 -6z"/>
<path d="M1976 420 c-3 -23 -13 -43 -21 -46 -8 -3 -14 -16 -13 -27 1 -12 -9
-50 -21 -85 -13 -35 -21 -65 -19 -67 3 -3 93 195 115 253 3 7 -3 12 -15 12
-15 0 -21 -9 -26 -40z"/>
<path d="M2108 453 c34 -2 88 -2 120 0 31 2 3 3 -63 3 -66 0 -92 -1 -57 -3z"/>
<path d="M2700 450 c0 -8 501 -2 509 5 2 3 -111 5 -252 4 -141 -1 -257 -5
-257 -9z"/>
<path d="M1088 123 c6 -2 18 -2 25 0 6 3 1 5 -13 5 -14 0 -19 -2 -12 -5z"/>
<path d="M2730 120 c-32 -7 -30 -7 20 -9 39 0 51 2 40 9 -8 5 -17 9 -20 9 -3
-1 -21 -5 -40 -9z"/>
<path d="M260 110 c-59 -5 -65 -7 -27 -8 26 -1 47 -6 47 -12 0 -5 5 -10 11
-10 5 0 7 5 3 12 -5 8 -2 9 11 5 9 -4 23 -3 29 2 6 5 25 11 41 14 27 4 27 4
-5 4 -19 0 -69 -3 -110 -7z"/>
<path d="M545 110 c-22 -6 -25 -8 -10 -10 11 -1 25 -1 30 1 6 2 82 6 170 9
l160 6 -160 1 c-88 0 -173 -3 -190 -7z"/>
<path d="M2070 110 c0 -5 5 -10 10 -10 6 0 10 5 10 10 0 6 -4 10 -10 10 -5 0
-10 -4 -10 -10z"/>
<path d="M18 103 c12 -2 32 -2 45 0 12 2 2 4 -23 4 -25 0 -35 -2 -22 -4z"/>
<path d="M1015 100 c-8 -13 5 -13 25 0 13 8 13 10 -2 10 -9 0 -20 -4 -23 -10z"/>
<path d="M2870 90 c-12 -8 -10 -10 8 -10 13 0 20 4 17 10 -7 12 -6 12 -25 0z"/>
<path d="M3637 93 c18 -2 50 -2 70 0 21 2 7 4 -32 4 -38 0 -55 -2 -38 -4z"/>
<path d="M4010 90 l-55 -7 63 -1 c36 -1 62 2 62 8 0 6 -3 9 -7 8 -5 -1 -33 -4
-63 -8z"/>
<path d="M405 80 c-33 -4 -46 -7 -28 -8 17 -1 34 -8 37 -14 5 -10 7 -10 12 0
3 6 21 12 40 12 19 0 34 5 34 10 0 6 -8 9 -17 8 -10 -1 -45 -4 -78 -8z"/>
<path d="M3048 83 c17 -2 47 -2 65 0 17 2 3 4 -33 4 -36 0 -50 -2 -32 -4z"/>
</g>
</svg>
