<svg version="1" xmlns="http://www.w3.org/2000/svg" width="682.667" height="682.667" viewBox="0 0 512.000000 512.000000"><path d="M137.4 78.6c-35.4 23.7-63.6 59-79.8 100.3-7.2 18.2-13.2 46.6-13.8 64.5-.3 12.7-7.1 11.6 69.7 11.6h65.2l.7-6.3c1.7-16.9 8.7-32.4 20.1-44.5 4.1-4.3 9.7-9.4 12.4-11.3 2.8-1.9 5.1-3.7 5.1-4.1 0-1.4-64.3-112.3-65.8-113.6-2.8-2.2-6.7-1.3-13.8 3.4zM361.8 75.7c-.8 1-16 27-33.8 57.8l-32.3 55.9 3.4 2.5c1.9 1.3 7.2 6.3 11.9 11 12.5 12.6 20.1 28.4 21.6 45.2l.7 6.9h132.4l2.1-2.3c2.7-2.9 2.8-7 .7-23.4-3.3-25-9.8-46.4-20.6-68.2-16.8-33.9-40.7-61.4-71.5-82.2-7.8-5.2-12-6.2-14.6-3.2zM247 213.4c-8.5 1.8-14.9 5.4-21.6 12-17.1 17.1-17.5 43.2-.8 60.6 17 17.8 43.6 18.4 61.5 1.4 18.1-17.4 18.2-45.4.1-62.6-7-6.7-12.2-9.5-21.1-11.4-7.8-1.6-10.7-1.6-18.1 0zM185.7 379.9c-18 31.2-32.7 57.5-32.7 58.5 0 3.2 5.4 7.1 16.1 11.8 58 25.3 122 25 176.9-.8 12.1-5.7 14-7.3 14-11.2 0-2-62.2-111.5-65-114.5-.4-.5-3 .3-5.7 1.6-10.7 5.5-18.7 7.2-33.3 7.2-14.4 0-22.6-1.7-33-7l-4.5-2.3-32.8 56.7z"/></svg>