<?xml version="1.0" standalone="no"?>
<!DOCTYPE svg PUBLIC "-//W3C//DTD SVG 20010904//EN"
 "http://www.w3.org/TR/2001/REC-SVG-20010904/DTD/svg10.dtd">
<svg version="1.0" xmlns="http://www.w3.org/2000/svg"
 width="512.000000pt" height="512.000000pt" viewBox="0 0 512.000000 512.000000"
 preserveAspectRatio="xMidYMid meet">
<metadata>
Created by potrace 1.11, written by Peter Selinger 2001-2013
</metadata>
<g transform="translate(0.000000,512.000000) scale(0.100000,-0.100000)"
fill="#000000" stroke="none">
<path d="M1348 4321 c-325 -219 -600 -560 -761 -946 -38 -92 -95 -279 -117
-390 -25 -124 -46 -331 -36 -368 14 -58 12 -57 718 -55 l643 3 6 72 c18 198
127 398 280 517 37 28 75 56 85 62 16 9 -13 63 -305 570 -177 307 -333 569
-347 582 -14 12 -34 22 -44 22 -10 0 -65 -31 -122 -69z"/>
<path d="M3632 4377 c-16 -8 -137 -208 -353 -582 -313 -543 -328 -571 -310
-585 10 -8 42 -33 71 -55 145 -112 280 -359 280 -516 0 -19 3 -44 6 -57 l6
-22 665 2 665 3 24 28 c22 26 24 34 18 100 -34 442 -179 831 -435 1169 -75 98
-247 278 -339 353 -90 74 -241 175 -259 175 -9 0 -26 -6 -39 -13z"/>
<path d="M2428 2981 c-232 -75 -360 -320 -288 -553 37 -120 120 -215 240 -272
61 -29 72 -31 181 -31 113 0 117 1 190 37 93 46 168 122 212 215 30 64 32 74
32 183 0 108 -2 119 -32 182 -76 162 -230 259 -407 257 -40 0 -96 -8 -128 -18z"/>
<path d="M2875 1864 c-189 -89 -429 -90 -624 -3 -36 16 -68 26 -72 22 -4 -5
-152 -258 -328 -563 -332 -575 -343 -597 -303 -633 31 -28 211 -108 347 -153
529 -176 1094 -140 1601 102 74 35 94 49 104 74 10 23 10 37 2 55 -15 32 -642
1118 -650 1126 -4 3 -38 -9 -77 -27z"/>
</g>
</svg>
